<svg width="23" height="23" viewBox="0 0 23 23" fill="none" xmlns="http://www.w3.org/2000/svg">
	<g filter="url(#filter0_d)">
		<path d="M16.8033 9.64819C15.9864 8.83542 15.0141 8.23372 13.9533 7.86949C15.0895 7.09086 15.8359 5.78775 15.8359 4.31425C15.8359 1.93538 13.8908 0 11.5 0C9.10917 0 7.16406 1.93538 7.16406 4.31425C7.16406 5.78775 7.91052 7.09086 9.04674 7.86949C7.9859 8.23372 7.01359 8.83542 6.19671 9.64819C4.78015 11.0577 4 12.9317 4 14.925H5.17188C5.17188 11.4531 8.01065 8.62851 11.5 8.62851C14.9893 8.62851 17.8281 11.4531 17.8281 14.925H19C19 12.9317 18.2199 11.0577 16.8033 9.64819ZM11.5 7.46249C9.75534 7.46249 8.33594 6.05022 8.33594 4.31425C8.33594 2.57829 9.75534 1.16601 11.5 1.16601C13.2447 1.16601 14.6641 2.57829 14.6641 4.31425C14.6641 6.05022 13.2447 7.46249 11.5 7.46249Z" fill="#D58D02"/>
	</g>
	<defs>
		<filter id="filter0_d" x="0" y="0" width="23" height="22.925" filterUnits="userSpaceOnUse" color-interpolation-filters="sRGB">
			<feFlood flood-opacity="0" result="BackgroundImageFix"/>
			<feColorMatrix in="SourceAlpha" type="matrix" values="0 0 0 0 0 0 0 0 0 0 0 0 0 0 0 0 0 0 127 0"/>
			<feOffset dy="4"/>
			<feGaussianBlur stdDeviation="2"/>
			<feColorMatrix type="matrix" values="0 0 0 0 0 0 0 0 0 0 0 0 0 0 0 0 0 0 0.15 0"/>
			<feBlend mode="normal" in2="BackgroundImageFix" result="effect1_dropShadow"/>
			<feBlend mode="normal" in="SourceGraphic" in2="effect1_dropShadow" result="shape"/>
		</filter>
	</defs>
</svg>
