<svg width="20" height="26" viewBox="0 0 20 26" fill="none" xmlns="http://www.w3.org/2000/svg">
	<g filter="url(#filter0_d)">
		<path d="M14.4087 7.66746V5.04495C14.4158 3.85832 13.9394 2.71733 13.0891 1.88529C12.267 1.0708 11.1908 0.624939 10.0512 0.624939C10.0335 0.624939 10.0123 0.624939 9.99471 0.624939C7.56366 0.62845 5.58777 2.6085 5.58777 5.04495V7.66746C4.67039 7.77629 4 8.54163 4 9.46846V15.3595C4 16.36 4.80447 17.185 5.81006 17.185H14.1899C15.1955 17.185 16 16.36 16 15.3595V9.46846C15.9965 8.54514 15.3261 7.77629 14.4087 7.66746ZM6.28991 5.04495H6.29344C6.29344 2.99468 7.95531 1.31655 9.99824 1.31655H10.0018C10.9721 1.31304 11.9036 1.69571 12.5916 2.37679C13.3079 3.08245 13.7066 4.04439 13.6995 5.04495V7.67097H12.9233V5.04495C12.9303 4.24801 12.6128 3.48267 12.0447 2.92096C11.5084 2.38732 10.7815 2.0854 10.0229 2.0854H10.0018C8.37871 2.0854 7.06616 3.41246 7.06616 5.04144V7.67097H6.28991V5.04495ZM12.2211 5.04495V7.67097H7.77536V5.04495C7.77536 3.80215 8.77036 2.79106 10.0053 2.79106H10.0265C10.5981 2.79106 11.1485 3.01926 11.5542 3.42299C11.9847 3.8513 12.2282 4.43759 12.2211 5.04495ZM15.3261 15.37C15.3261 15.9844 14.8251 16.4829 14.2076 16.4829H5.82417C5.2067 16.4829 4.70567 15.9844 4.70567 15.37V9.48602C4.70567 8.87164 5.2067 8.37312 5.82417 8.37312H14.2076C14.8251 8.37312 15.3261 8.87164 15.3261 9.48602V15.37Z" fill="#D58D02"/>
		<path d="M11.2192 12.2103C11.0639 11.6662 10.5664 11.294 9.99835 11.294C9.29621 11.294 8.72461 11.8593 8.72461 12.5614C8.72461 13.1266 9.09862 13.6217 9.64552 13.7761V14.7591C9.64552 14.9522 9.80429 15.1102 9.99835 15.1102C10.1924 15.1102 10.3512 14.9522 10.3512 14.7591V13.7761C11.0251 13.583 11.4168 12.8809 11.2192 12.2103ZM9.99835 13.1231C9.68433 13.1231 9.43028 12.8704 9.43028 12.5579C9.43028 12.2454 9.68433 11.9927 9.99835 11.9927C10.3124 11.9927 10.5664 12.2454 10.5664 12.5579C10.5664 12.8704 10.3124 13.1231 9.99835 13.1231Z" fill="#D58D02"/>
	</g>
	<defs>
		<filter id="filter0_d" x="0" y="0.624939" width="20" height="24.5601" filterUnits="userSpaceOnUse" color-interpolation-filters="sRGB">
			<feFlood flood-opacity="0" result="BackgroundImageFix"/>
			<feColorMatrix in="SourceAlpha" type="matrix" values="0 0 0 0 0 0 0 0 0 0 0 0 0 0 0 0 0 0 127 0"/>
			<feOffset dy="4"/>
			<feGaussianBlur stdDeviation="2"/>
			<feColorMatrix type="matrix" values="0 0 0 0 0 0 0 0 0 0 0 0 0 0 0 0 0 0 0.25 0"/>
			<feBlend mode="normal" in2="BackgroundImageFix" result="effect1_dropShadow"/>
			<feBlend mode="normal" in="SourceGraphic" in2="effect1_dropShadow" result="shape"/>
		</filter>
	</defs>
</svg>
