<svg width="24" height="21" viewBox="0 0 24 21" fill="none" xmlns="http://www.w3.org/2000/svg">
	<g filter="url(#filter0_d)">
		<path d="M18.3692 0.789948H5.38462C4.62209 0.789948 4 1.40826 4 2.16764V11.3522C4 12.1091 4.61932 12.7299 5.38462 12.7299H18.3692C19.1298 12.7299 19.7538 12.1137 19.7538 11.3522V2.16764C19.7538 1.41083 19.1345 0.789948 18.3692 0.789948ZM18.178 1.70841L11.9063 7.94883L5.58028 1.70841H18.178ZM4.92308 11.1621V2.35344L9.36859 6.73879L4.92308 11.1621ZM5.57578 11.8115L10.0241 7.38541L11.5828 8.92298C11.7632 9.10098 12.0544 9.10039 12.2341 8.92157L13.7538 7.40939L18.1781 11.8115H5.57578ZM18.8308 11.162L14.4066 6.75994L18.8308 2.35782V11.162Z" fill="#D58D02"/>
	</g>
	<defs>
		<filter id="filter0_d" x="0" y="0.789948" width="23.7538" height="19.94" filterUnits="userSpaceOnUse" color-interpolation-filters="sRGB">
			<feFlood flood-opacity="0" result="BackgroundImageFix"/>
			<feColorMatrix in="SourceAlpha" type="matrix" values="0 0 0 0 0 0 0 0 0 0 0 0 0 0 0 0 0 0 127 0"/>
			<feOffset dy="4"/>
			<feGaussianBlur stdDeviation="2"/>
			<feColorMatrix type="matrix" values="0 0 0 0 0 0 0 0 0 0 0 0 0 0 0 0 0 0 0.15 0"/>
			<feBlend mode="normal" in2="BackgroundImageFix" result="effect1_dropShadow"/>
			<feBlend mode="normal" in="SourceGraphic" in2="effect1_dropShadow" result="shape"/>
		</filter>
	</defs>
</svg>
