<?xml version="1.0" encoding="utf-8"?>
<!-- Generator: Adobe Illustrator 25.2.0, SVG Export Plug-In . SVG Version: 6.00 Build 0)  -->
<svg version="1.1" id="Capa_1" xmlns="http://www.w3.org/2000/svg" xmlns:xlink="http://www.w3.org/1999/xlink" x="0px" y="0px"
	 viewBox="0 0 295 311" style="enable-background:new 0 0 295 311;" xml:space="preserve">
<style type="text/css">
	.st0{fill:#D48D02;}
</style>
<path class="st0" d="M186.1,250.9c-4.5-12.7-5.2-22.9-2.2-31.2c11.3-31,2.6-65.3-22-82.3c-24.6-17-60.6-13.5-85.6,8.1
	c-6.7,5.7-16.5,8.7-29.9,9c-16.4,0.4-29.8,9.2-35.1,23c-6.3,16.6,0.7,40.1,22.3,55c9.1,6.3,19.4,9.9,29.7,10.5
	c6.9,0.4,14.5,3.3,20.5,7.5c6,4.2,10.7,9.7,13.5,16c4.2,9.5,11.2,17.8,20.3,24c21.6,14.9,46.1,13.3,59.5,1.4
	C188.1,282.1,191.6,266.3,186.1,250.9z"/>
<path class="st0" d="M99.3,94.3c9.9-14.3,14.2-44.8,0.9-54.1C86.8,31,59.8,46,50,60.3C40.6,73.9,44,92.6,57.6,102
	S89.9,107.9,99.3,94.3z"/>
<path class="st0" d="M273.8,160c-13.4-9.2-40.4,5.7-50.2,20c-9.4,13.6-5.9,32.3,7.7,41.7c13.6,9.4,32.3,5.9,41.7-7.7
	C282.8,199.8,287.2,169.2,273.8,160z"/>
<path class="st0" d="M208.3,96.6c-9.4,13.6-6,32.3,7.7,41.7c13.6,9.4,32.3,5.9,41.7-7.7c9.9-14.3,14.2-44.8,0.9-54.1
	C245.1,67.3,218.1,82.3,208.3,96.6z"/>
<path class="st0" d="M141,86.7c13.6,9.4,32.3,5.9,41.7-7.7c9.9-14.3,14.2-44.8,0.9-54.1c-13.4-9.2-40.4,5.7-50.2,20
	C124,58.6,127.4,77.3,141,86.7z"/>
</svg>
